# xmcd
#
# Track frame offsets: 
#        150
#        13160
#        29818
#        43646
#        55274
#        65606
#        78258
#        97699
#        107954
#        119504
#        134131
#        147852
#        163530
#        176560
#        196444
#        206560
#        221255
#        236414
#        248530
#        260385
#        272264
#        282826
#
# Disc length: 3954 seconds
#
# Revision: 2
# Processed by: cddbd v1.5.2PL0 Copyright (c) Steve Scherf et al.
# Submitted via: ExactAudioCopyFreeDBPlugin 1.0
#
DISCID=3e0f7016
DTITLE=Various Artist - More Lost Soul Gems from Sounds Of Memphis
DYEAR=2014
DGENRE=Soul
TTITLE0=Marjorie Ingram - Tempted
TTITLE1=George Jackson - Hold On Hold Out
TTITLE2=Dan Greer - Since My Baby Left Me
TTITLE3=William Bollinger - That's Why I Keep Her
TTITLE4=Rudolph Taylor - One Man's Poison
TTITLE5=Barbara and The Browns - Human Emotions
TTITLE6=(unknown male vocalist) - It Don't Bother Me No More
TTITLE7=Carroll Lloyd - A Great Big Thing
TTITLE8=Rudolph Taylor - Misery
TTITLE9=Barry Jones - That's How I Take to You
TTITLE10=Fran Farley - I Care for You
TTITLE11=Billy Cee and The Freedom Express - Don't Matter If It's in the
TTITLE11=Past
TTITLE12=Art Jerry Miller - You Can Always Depend on Me
TTITLE13=The Jacksonians - If I Could Build My World
TTITLE14=Donald O'Connor - You Don't Understand Me
TTITLE15=Vision - Lost in a Dream
TTITLE16=Fran Farley - Memphis Funk
TTITLE17=Willie Cobbs - Hey Little Girl
TTITLE18=Tommy Raye - You Don't Love Me
TTITLE19=Rudolph Taylor - You're Using Me
TTITLE20=Ann Hodge - Your Own Free Will
TTITLE21=Carroll Lloyd - Poor Side of Town
EXTD=
EXTT0=
EXTT1=
EXTT2=
EXTT3=
EXTT4=
EXTT5=
EXTT6=
EXTT7=
EXTT8=
EXTT9=
EXTT10=
EXTT11=
EXTT12=
EXTT13=
EXTT14=
EXTT15=
EXTT16=
EXTT17=
EXTT18=
EXTT19=
EXTT20=
EXTT21=
PLAYORDER=
